<svg width="44" height="44" viewBox="0 0 44 44" fill="none" xmlns="http://www.w3.org/2000/svg">
<path fill-rule="evenodd" clip-rule="evenodd" d="M40 22C40 31.9411 31.9411 40 22 40C12.0589 40 4 31.9411 4 22C4 12.0589 12.0589 4 22 4C31.9411 4 40 12.0589 40 22ZM44 22C44 34.1503 34.1503 44 22 44C9.84974 44 0 34.1503 0 22C0 9.84974 9.84974 0 22 0C34.1503 0 44 9.84974 44 22ZM15.0976 34.1207C17.4016 35.2727 20.0896 35.8487 23.1616 35.8487C25.6576 35.8487 27.8176 35.4967 29.6416 34.7927C31.4656 34.0567 33.0016 33.0007 34.2496 31.6247L29.4496 26.6327C28.5536 27.4007 27.6416 27.9767 26.7136 28.3607C25.8176 28.7127 24.7296 28.8887 23.4496 28.8887C22.0736 28.8887 20.8896 28.6487 19.8976 28.1687C18.9056 27.6567 18.1376 26.9367 17.5936 26.0087C17.3732 25.6093 17.2003 25.1773 17.0747 24.7127H35.9776C36.0096 24.3607 36.0416 23.9767 36.0736 23.5607C36.1056 23.1447 36.1216 22.7767 36.1216 22.4567C36.1216 19.5767 35.4976 17.1287 34.2496 15.1127C33.0016 13.0967 31.3216 11.5767 29.2096 10.5527C27.0976 9.49667 24.7616 8.96867 22.2016 8.96867C19.4816 8.96867 17.0336 9.54467 14.8576 10.6967C12.6816 11.8167 10.9696 13.4007 9.72156 15.4487C8.50556 17.4647 7.89756 19.7687 7.89756 22.3607C7.89756 24.9527 8.52156 27.2727 9.76956 29.3207C11.0496 31.3367 12.8256 32.9367 15.0976 34.1207ZM16.9414 19.9127H27.5891C27.4854 19.2791 27.2896 18.7031 27.0016 18.1847C26.5536 17.3207 25.9136 16.6487 25.0816 16.1687C24.2816 15.6887 23.3376 15.4487 22.2496 15.4487C21.1616 15.4487 20.2016 15.6887 19.3696 16.1687C18.5696 16.6487 17.9456 17.3367 17.4976 18.2327C17.2356 18.7379 17.0502 19.2979 16.9414 19.9127Z" fill="#f8fafb"/>
</svg>
